HIERARCHY
ROOT Hips
{
	OFFSET 0.000000 0.000000 0.000000
	CHANNELS 6 Xposition Yposition Zposition Xrotation Yrotation Zrotation
	JOINT LeftUpLeg_virtual
	{
		OFFSET 0.000000 0.000000 0.000000
		CHANNELS 3 Xrotation Yrotation Zrotation
		JOINT LeftUpLeg
		{
			OFFSET 10.205400 -3.823500 0.155100
			CHANNELS 3 Xrotation Yrotation Zrotation
			JOINT LeftLeg
			{
				OFFSET 0.708757 -12.982077 0.567790
				CHANNELS 3 Xrotation Yrotation Zrotation
				JOINT LeftFoot
				{
					OFFSET -0.708756 -10.717838 -2.184338
					CHANNELS 3 Xrotation Yrotation Zrotation
					JOINT LeftToeBase
					{
						OFFSET 0.108149 -7.191104 7.560241
						CHANNELS 3 Xrotation Yrotation Zrotation
						JOINT LeftToe_End
						{
							OFFSET 0.070230 0.081724 4.490308
							CHANNELS 3 Xrotation Yrotation Zrotation
							End Site
							{
								OFFSET 0 0 0
							}
						}
					}
				}
			}
		}
	}
	JOINT RightUpLeg_virtual
	{
		OFFSET 0.000000 0.000000 0.000000
		CHANNELS 3 Xrotation Yrotation Zrotation
		JOINT RightUpLeg
		{
			OFFSET -10.205400 -3.823500 0.005500
			CHANNELS 3 Xrotation Yrotation Zrotation
			JOINT RightLeg
			{
				OFFSET -0.708756 -12.982134 0.610632
				CHANNELS 3 Xrotation Yrotation Zrotation
				JOINT RightFoot
				{
					OFFSET 0.708754 -10.717769 -1.945823
					CHANNELS 3 Xrotation Yrotation Zrotation
					JOINT RightToeBase
					{
						OFFSET -0.108140 -7.191069 7.372968
						CHANNELS 3 Xrotation Yrotation Zrotation
						JOINT RightToe_End
						{
							OFFSET -0.070227 0.081735 4.479403
							CHANNELS 3 Xrotation Yrotation Zrotation
							End Site
							{
								OFFSET 0 0 0
							}
						}
					}
				}
			}
		}
	}
	JOINT Spine_virtual
	{
		OFFSET 0.000000 0.000000 0.000000
		CHANNELS 3 Xrotation Yrotation Zrotation
		JOINT Spine
		{
			OFFSET 0.000000 6.876099 0.125700
			CHANNELS 3 Xrotation Yrotation Zrotation
			JOINT Spine1
			{
				OFFSET 0.000000 5.730043 0.104720
				CHANNELS 3 Xrotation Yrotation Zrotation
				JOINT Spine1_split
				{
					OFFSET 0.000000 5.730043 0.104720
					CHANNELS 3 Xrotation Yrotation Zrotation
					JOINT Spine2
					{
						OFFSET 0.000000 5.730043 0.104720
						CHANNELS 3 Xrotation Yrotation Zrotation
						JOINT Neck_virtual
						{
							OFFSET 0.000000 0.000000 0.000000
							CHANNELS 3 Xrotation Yrotation Zrotation
							JOINT Neck
							{
								OFFSET 0.000000 10.314075 0.188496
								CHANNELS 3 Xrotation Yrotation Zrotation
								JOINT Head
								{
									OFFSET 0.000000 7.643700 -2.377400
									CHANNELS 3 Xrotation Yrotation Zrotation
									JOINT HeadTop_End
									{
										OFFSET 0.000000 43.788605 -13.619600
										CHANNELS 3 Xrotation Yrotation Zrotation
										End Site
										{
											OFFSET 0 0 0
										}
									}
								}
							}
						}
						JOINT LeftShoulder_virtual
						{
							OFFSET 0.000000 0.000000 0.000000
							CHANNELS 3 Xrotation Yrotation Zrotation
							JOINT LeftShoulder
							{
								OFFSET 2.196100 4.412489 0.087492
								CHANNELS 3 Xrotation Yrotation Zrotation
								JOINT LeftShoulder_split
								{
									OFFSET 2.196100 4.412489 0.087492
									CHANNELS 3 Xrotation Yrotation Zrotation
									JOINT LeftArm
									{
										OFFSET 8.771219 -2.981674 -0.026999
										CHANNELS 3 Xrotation Yrotation Zrotation
										JOINT LeftForeArm
										{
											OFFSET 8.512804 0.000000 -0.000000
											CHANNELS 3 Xrotation Yrotation Zrotation
											JOINT LeftHand
											{
												OFFSET 18.484802 0.000000 -0.000000
												CHANNELS 3 Xrotation Yrotation Zrotation
												End Site
												{
													OFFSET 0 0 0
												}
											}
										}
									}
								}
							}
						}
						JOINT RightShoulder_virtual
						{
							OFFSET 0.000000 0.000000 0.000000
							CHANNELS 3 Xrotation Yrotation Zrotation
							JOINT RightShoulder
							{
								OFFSET -2.196100 4.412496 0.070690
								CHANNELS 3 Xrotation Yrotation Zrotation
								JOINT RightShoulder_split
								{
									OFFSET -2.196100 4.412496 0.070690
									CHANNELS 3 Xrotation Yrotation Zrotation
									JOINT RightArm
									{
										OFFSET -8.771282 -2.981682 -0.094208
										CHANNELS 3 Xrotation Yrotation Zrotation
										JOINT RightForeArm
										{
											OFFSET -8.494598 0.000000 0.000000
											CHANNELS 3 Xrotation Yrotation Zrotation
											JOINT RightHand
											{
												OFFSET -18.483803 0.000000 0.000001
												CHANNELS 3 Xrotation Yrotation Zrotation
												End Site
												{
													OFFSET 0 0 0
												}
											}
										}
									}
								}
							}
						}
					}
				}
			}
		}
	}
}
MOTION
Frames: 7
Frame Time: 0.03333333
1.060511 33.078468 -6.630911 0.000000 0.000000 0.000000 -16.275615 5.429133 1.208064 10.840075 34.124585 2.522144 31.561355 12.491962 -5.630145 -23.335019 22.487286 -12.687036 -3.382474 -3.676772 8.604123 0.000000 0.000000 0.000000 -14.602029 2.560471 0.246186 31.952694 -11.699301 5.984726 15.971226 -2.049622 5.284626 -40.696801 -29.214287 2.898867 -5.296033 5.693883 -13.474692 0.000000 0.000000 0.000000 -14.834329 7.767257 0.787847 6.291605 -6.290517 -2.858941 3.127153 -0.286854 -0.576010 0.157043 0.139790 -0.051958 0.000000 0.000000 0.000000 6.240671 1.558616 -0.357383 8.517884 4.578944 3.139667 -11.591210 -40.797608 12.389877 0.000000 0.000000 0.000000 5.984327 -0.076271 -0.706529 4.345501 -4.423705 -11.915338 8.321971 -9.009288 -0.111767 -26.201453 12.814487 -34.709980 14.496556 -55.679063 11.707672 0.000000 0.000000 0.000000 5.193173 -0.491489 -0.516730 -2.170092 8.996215 19.220437 10.494126 5.430282 -0.099317 -10.250371 0.784791 58.772507 -4.236001 42.439415 2.986670 0.000000 0.000000 0.000000 
0.919347 33.041374 -6.638559 0.000000 0.000000 0.000000 -16.453229 5.252612 1.085867 9.698300 33.519051 3.788968 33.494879 12.458372 -6.106417 -21.691576 21.863820 -12.147879 -3.270160 -3.690201 8.526238 0.000000 0.000000 0.000000 -14.489714 2.605712 0.217840 31.784497 -12.020870 6.377682 16.600204 -1.928571 5.161363 -40.832633 -29.537156 2.823377 -4.456964 5.528599 -13.306962 0.000000 0.000000 0.000000 -14.907759 7.485851 0.627496 6.548998 -6.441860 -2.863995 3.108777 -0.319369 -0.581477 0.161394 0.111790 -0.041296 0.000000 0.000000 0.000000 6.229442 1.524673 -0.356608 8.540167 4.625535 3.159002 -11.539794 -40.618309 12.336583 0.000000 0.000000 0.000000 6.040679 -0.115880 -0.682614 4.325101 -4.481423 -11.949746 8.358178 -8.878286 -0.193575 -26.436988 12.670996 -34.863297 14.571577 -55.863383 11.804680 0.000000 0.000000 0.000000 5.215364 -0.527918 -0.513747 -2.160690 8.969640 19.185697 10.489642 5.132529 -0.092847 -10.177046 0.475542 58.815702 -4.303079 42.465093 3.052021 0.000000 0.000000 0.000000 
0.722034 33.034756 -6.582714 0.000000 0.000000 0.000000 -16.475057 5.022268 0.580108 6.877892 32.184596 6.319513 36.519635 11.964473 -6.633461 -18.604269 19.903726 -11.807960 -3.771802 -3.769024 7.479805 0.000000 0.000000 0.000000 -14.388685 2.462767 -0.142644 31.635964 -12.365669 6.781906 17.279199 -1.275933 5.092963 -41.500984 -29.817245 2.748864 -2.777594 5.486524 -13.501114 0.000000 0.000000 0.000000 -14.857208 6.799871 0.089190 6.751793 -6.556050 -2.662899 3.100125 -0.393815 -0.583913 0.173531 0.078559 -0.025876 0.000000 0.000000 0.000000 6.244212 1.459343 -0.366867 8.613791 4.697964 3.237592 -11.508161 -40.135360 12.421919 0.000000 0.000000 0.000000 6.094842 -0.199869 -0.666215 4.280619 -4.552853 -12.018098 8.339842 -8.744826 -0.277020 -26.868001 12.525445 -35.050536 14.762392 -55.935281 11.971258 0.000000 0.000000 0.000000 5.253935 -0.603675 -0.511039 -2.131902 8.806912 19.075009 10.249667 4.862202 0.032556 -9.975752 0.175536 58.717873 -4.403395 42.454711 3.140994 0.000000 0.000000 0.000000 
0.532021 33.061287 -6.486969 0.000000 0.000000 0.000000 -16.441399 4.488051 -0.236166 3.376035 30.212631 9.392557 39.364901 10.834738 -6.889795 -14.612237 16.656798 -11.916152 -7.355927 -4.162856 6.861892 0.000000 0.000000 0.000000 -14.392665 1.951286 -0.807583 31.515490 -12.607441 7.157167 17.886592 -0.169544 5.023310 -42.290660 -30.077346 2.799130 -1.004541 5.630660 -14.030108 0.000000 0.000000 0.000000 -14.728456 5.825522 -0.702527 6.874340 -6.598613 -2.292381 3.111439 -0.483467 -0.585486 0.184619 0.072466 -0.008643 0.000000 0.000000 0.000000 6.283358 1.372896 -0.390972 8.729625 4.793467 3.363305 -11.522322 -39.376355 12.560160 0.000000 0.000000 0.000000 6.142613 -0.316173 -0.661865 4.213145 -4.629907 -12.103112 8.295048 -8.623857 -0.302610 -27.374964 12.416255 -35.239507 14.981443 -55.856474 12.129146 0.000000 0.000000 0.000000 5.302864 -0.699940 -0.505715 -2.089045 8.551340 18.899507 9.843958 4.721475 0.189707 -9.677576 0.003159 58.528328 -4.514866 42.427745 3.229471 0.000000 0.000000 0.000000 
0.399665 33.110573 -6.302799 0.000000 0.000000 0.000000 -16.408942 3.384126 -1.207554 0.699872 27.480165 11.809397 41.138919 9.202976 -6.535271 -11.161462 12.672028 -12.163602 -13.256621 -4.881292 7.110017 0.000000 0.000000 0.000000 -14.475305 1.016702 -1.648420 31.287317 -12.673861 7.333277 18.343055 1.395116 4.894983 -42.410632 -30.438390 3.550757 -0.263166 6.013214 -14.807029 0.000000 0.000000 0.000000 -14.612507 4.377169 -1.607827 6.933446 -6.549559 -1.833561 3.153760 -0.568505 -0.591918 0.184949 0.075626 -0.008173 0.000000 0.000000 0.000000 6.346778 1.275573 -0.422709 8.857629 4.934465 3.508973 -11.632873 -38.373649 12.659379 0.000000 0.000000 0.000000 6.191259 -0.452057 -0.666462 4.132968 -4.703505 -12.184267 8.295572 -8.544915 -0.277983 -27.847982 12.347283 -35.390164 15.146074 -55.683462 12.207357 0.000000 0.000000 0.000000 5.347288 -0.801270 -0.495399 -2.051108 8.248204 18.694866 9.377075 4.642763 0.337580 -9.328084 0.025481 58.290685 -4.614066 42.385500 3.287598 0.000000 0.000000 0.000000 
0.332681 33.157524 -5.973804 0.000000 0.000000 0.000000 -16.378445 1.591192 -2.182344 -0.697428 24.615148 12.906486 41.979043 7.853965 -5.895812 -10.014662 9.049735 -11.762274 -16.717320 -5.446944 7.095681 0.000000 0.000000 0.000000 -14.613697 -0.527871 -2.505069 30.837187 -12.486825 7.181947 18.666379 3.396150 4.630522 -41.639302 -30.857907 5.093853 -0.553839 6.567935 -15.684870 0.000000 0.000000 0.000000 -14.677364 2.317238 -2.534978 6.961015 -6.407145 -1.379308 3.217049 -0.637227 -0.601074 0.178672 0.094649 -0.028907 0.000000 0.000000 0.000000 6.422827 1.178996 -0.461146 8.957514 5.130100 3.640598 -11.880216 -37.156454 12.647201 0.000000 0.000000 0.000000 6.250949 -0.589885 -0.678317 4.048208 -4.779857 -12.270615 8.375486 -8.511987 -0.193674 -28.209962 12.328525 -35.477737 15.202230 -55.486961 12.165665 0.000000 0.000000 0.000000 5.377390 -0.898402 -0.478627 -2.032061 7.948333 18.500131 8.885362 4.566073 0.454073 -8.963659 0.233953 58.068793 -4.676829 42.328554 3.287345 0.000000 0.000000 0.000000 
0.325866 33.181709 -5.571007 0.000000 0.000000 0.000000 -16.462921 -0.793218 -3.062065 -0.970214 22.052273 12.846512 41.664420 6.859810 -5.037226 -11.326241 6.288391 -11.319964 -16.317897 -5.693886 7.075016 0.000000 0.000000 0.000000 -14.850537 -2.768932 -3.292211 30.151395 -12.056879 6.738120 18.836477 5.527730 4.225417 -40.483720 -31.099265 6.606238 -0.841445 7.112662 -16.511535 0.000000 0.000000 0.000000 -15.042549 -0.189166 -3.420276 7.006313 -6.215269 -1.010428 3.300399 -0.692264 -0.616175 0.180319 0.113246 -0.044261 0.000000 0.000000 0.000000 6.506874 1.097848 -0.500723 9.015633 5.394012 3.731704 -12.282046 -35.748346 12.515190 0.000000 0.000000 0.000000 6.309782 -0.714169 -0.693722 3.960719 -4.877020 -12.346521 8.488262 -8.503642 -0.118948 -28.445325 12.344092 -35.492883 15.123016 -55.306828 11.988906 0.000000 0.000000 0.000000 5.385895 -0.978325 -0.454980 -2.035826 7.695340 18.349223 8.412129 4.474009 0.545999 -8.618935 0.540784 57.880813 -4.695447 42.250891 3.215659 0.000000 0.000000 0.000000 
